<svg width="137" height="46" viewBox="0 0 137 46" fill="none" xmlns="http://www.w3.org/2000/svg">
<path d="M32.6984 21.2844C32.7091 21.0902 32.7112 20.8982 32.7112 20.7019C32.7112 20.3605 32.6984 20.0169 32.6728 19.6819C32.0903 12.0365 25.006 6 16.3535 6C7.32321 6 0 12.5828 0 20.704C0 26.939 4.31668 32.2671 10.4087 34.4073C12.2032 35.0368 13.1869 36.9657 12.6492 38.7901L12.2928 40C16.5306 37.7275 21.05 35.6769 25.038 32.9862C28.3902 30.7265 31.6059 27.3892 32.453 23.3073H17.431C16.2894 25.8252 13.5411 27.5983 10.3297 27.5983C6.94553 27.5983 4.07129 25.6267 3.0556 22.8912C2.8657 22.3833 2.7398 21.8456 2.68646 21.2866V21.2844H32.6984ZM10.3297 13.8076C14.0169 13.8076 17.0982 16.1484 17.8322 19.268H2.82515C3.56132 16.1484 6.63826 13.8076 10.3297 13.8076Z" fill="#00CC74"/>
<path d="M40.7109 40.2659V21.2578H55.2092V25.0881H44.966V28.8052H54.7824V32.6072H44.966V36.4376H55.2092V40.2679H40.7109V40.2659Z" fill="#1A1D33"/>
<path d="M57.8379 40.2658V25.9961H61.7815V28.4917H61.9514C62.7178 26.8738 64.2487 25.7109 66.7463 25.7109C70.4634 25.7109 72.053 28.1782 72.053 31.2158V40.2658H67.798V32.0672C67.798 30.0812 67.1448 29.3714 64.9889 29.3714C62.9464 29.3714 62.0666 30.0246 62.0666 32.1804V40.2658H57.8379Z" fill="#1A1D33"/>
<path d="M73.8105 32.2654C73.8105 28.2935 75.9664 25.7109 80.0232 25.7109C82.0658 25.7109 83.6837 26.5057 84.4501 28.065H84.5917V25.9961H88.5353V38.6782C88.5353 43.3317 86.066 45.3743 81.4712 45.3743C77.016 45.3743 74.5204 43.4166 74.5204 39.7845H78.7471C78.7471 41.2608 79.1718 41.6289 81.6128 41.6289C83.8535 41.6289 84.3086 41.1192 84.3086 38.9048V36.6923H84.1387C83.5138 37.7985 82.0112 38.7632 79.8553 38.7632C75.9097 38.7632 73.8105 36.2373 73.8105 32.2654ZM81.1598 35.216C83.2023 35.216 84.3086 34.5061 84.3086 32.6901V31.8387C84.3086 30.0226 83.2307 29.3127 81.1881 29.3127C78.7491 29.3127 78.0393 30.2491 78.0393 32.2634C78.0393 34.2796 78.7471 35.216 81.1598 35.216Z" fill="#1A1D33"/>
<path d="M90.4668 36.6356C90.4668 34.4232 92.0564 33.0601 95.007 32.6071L99.8849 31.8689V31.4159C99.8849 29.7414 98.9768 29.43 97.3023 29.43C95.5712 29.43 94.8917 29.9113 94.8917 31.3593V31.6707H90.8349V31.3593C90.8349 27.9557 93.474 25.7129 97.5026 25.7129C101.701 25.7129 103.915 28.0103 103.915 31.8123V40.2677H99.9718V38.3384H99.802C99.0355 39.388 97.5895 40.5509 94.9503 40.5509C92.4244 40.5509 90.4668 39.2161 90.4668 36.6356ZM96.368 37.3151C98.0991 37.3151 99.8869 36.8621 99.8869 34.6476L95.8018 35.2725C94.922 35.4141 94.5257 35.6972 94.5257 36.2938C94.5236 37.0603 95.1202 37.3151 96.368 37.3151Z" fill="#1A1D33"/>
<path d="M105.701 32.2654C105.701 28.2935 107.857 25.7109 111.914 25.7109C113.956 25.7109 115.574 26.5057 116.341 28.065H116.482V25.9961H120.426V38.6782C120.426 43.3317 117.957 45.3743 113.362 45.3743C108.907 45.3743 106.411 43.4166 106.411 39.7845H110.638C110.638 41.2608 111.062 41.6289 113.503 41.6289C115.744 41.6289 116.199 41.1192 116.199 38.9048V36.6923H116.029C115.404 37.7985 113.902 38.7632 111.746 38.7632C107.8 38.7632 105.701 36.2373 105.701 32.2654ZM113.05 35.216C115.093 35.216 116.199 34.5061 116.199 32.6901V31.8387C116.199 30.0226 115.121 29.3127 113.079 29.3127C110.638 29.3127 109.93 30.2491 109.93 32.2634C109.928 34.2796 110.638 35.216 113.05 35.216Z" fill="#1A1D33"/>
<path d="M122.213 33.1734C122.213 28.6049 124.937 25.7109 129.39 25.7109C133.674 25.7109 136.199 28.2652 136.199 31.9802C136.199 32.775 136.086 33.5981 136.001 34.0794H126.213C126.298 36.0654 127.093 36.8602 129.419 36.8602C131.121 36.8602 131.859 36.4921 131.859 35.6124V35.4425H136.058V35.7256C136.058 38.7612 133.447 40.5489 129.362 40.5489C124.454 40.5509 122.213 37.6853 122.213 33.1734ZM126.241 31.4989H132.114C132.199 30.0226 131.235 29.2015 129.249 29.2015C127.206 29.2015 126.411 29.9963 126.241 31.4989Z" fill="#1A1D33"/>
<path d="M41.1939 17V6.81818H47.3388V7.91193H42.4268V11.3523H47.0206V12.446H42.4268V15.9062H47.4183V17H41.1939ZM52.0843 17.1591C51.3684 17.1591 50.7519 16.9901 50.2348 16.652C49.7178 16.3139 49.3201 15.8482 49.0416 15.255C48.7632 14.6617 48.624 13.9839 48.624 13.2216C48.624 12.446 48.7666 11.7616 49.0516 11.1683C49.3399 10.5717 49.741 10.1061 50.2547 9.77131C50.7718 9.43324 51.375 9.2642 52.0644 9.2642C52.6013 9.2642 53.0852 9.36364 53.5161 9.5625C53.947 9.76136 54.2999 10.0398 54.575 10.3977C54.8501 10.7557 55.0208 11.1733 55.0871 11.6506H53.9138C53.8243 11.3026 53.6255 10.9943 53.3172 10.7259C53.0123 10.4541 52.6013 10.3182 52.0843 10.3182C51.6269 10.3182 51.2258 10.4375 50.8811 10.6761C50.5398 10.9115 50.2729 11.2446 50.0807 11.6754C49.8918 12.103 49.7973 12.6051 49.7973 13.1818C49.7973 13.7718 49.8901 14.2855 50.0757 14.723C50.2647 15.1605 50.5298 15.5002 50.8712 15.7422C51.2159 15.9841 51.6202 16.1051 52.0843 16.1051C52.3892 16.1051 52.6659 16.0521 52.9145 15.946C53.1631 15.84 53.3736 15.6875 53.5459 15.4886C53.7183 15.2898 53.8409 15.0511 53.9138 14.7727H55.0871C55.0208 15.2235 54.8568 15.6295 54.5949 15.9908C54.3364 16.3487 53.9934 16.6338 53.5658 16.8459C53.1416 17.0547 52.6477 17.1591 52.0843 17.1591ZM59.4846 17.1591C58.7952 17.1591 58.1903 16.995 57.6699 16.6669C57.1529 16.3388 56.7485 15.8797 56.4569 15.2898C56.1685 14.6998 56.0243 14.0104 56.0243 13.2216C56.0243 12.4261 56.1685 11.7318 56.4569 11.1385C56.7485 10.5452 57.1529 10.0845 57.6699 9.75639C58.1903 9.42827 58.7952 9.2642 59.4846 9.2642C60.174 9.2642 60.7772 9.42827 61.2942 9.75639C61.8146 10.0845 62.2189 10.5452 62.5073 11.1385C62.799 11.7318 62.9448 12.4261 62.9448 13.2216C62.9448 14.0104 62.799 14.6998 62.5073 15.2898C62.2189 15.8797 61.8146 16.3388 61.2942 16.6669C60.7772 16.995 60.174 17.1591 59.4846 17.1591ZM59.4846 16.1051C60.0082 16.1051 60.4391 15.9709 60.7772 15.7024C61.1153 15.4339 61.3655 15.081 61.5279 14.6435C61.6903 14.206 61.7715 13.732 61.7715 13.2216C61.7715 12.7112 61.6903 12.2356 61.5279 11.7947C61.3655 11.3539 61.1153 10.9976 60.7772 10.7259C60.4391 10.4541 60.0082 10.3182 59.4846 10.3182C58.9609 10.3182 58.53 10.4541 58.192 10.7259C57.8539 10.9976 57.6037 11.3539 57.4412 11.7947C57.2788 12.2356 57.1976 12.7112 57.1976 13.2216C57.1976 13.732 57.2788 14.206 57.4412 14.6435C57.6037 15.081 57.8539 15.4339 58.192 15.7024C58.53 15.9709 58.9609 16.1051 59.4846 16.1051ZM64.3158 17V9.36364H65.4493V10.5568H65.5488C65.7079 10.1491 65.9647 9.83262 66.3194 9.60724C66.674 9.37855 67.0999 9.2642 67.5971 9.2642C68.1009 9.2642 68.5201 9.37855 68.8549 9.60724C69.1929 9.83262 69.4564 10.1491 69.6454 10.5568H69.7249C69.9205 10.1624 70.2138 9.84919 70.6049 9.61719C70.996 9.38187 71.465 9.2642 72.0118 9.2642C72.6946 9.2642 73.2531 9.47798 73.6873 9.90554C74.1215 10.3298 74.3385 10.991 74.3385 11.8892V17H73.1652V11.8892C73.1652 11.3258 73.0111 10.9231 72.7029 10.6811C72.3947 10.4392 72.0317 10.3182 71.6141 10.3182C71.0772 10.3182 70.6612 10.4806 70.3662 10.8054C70.0713 11.1269 69.9238 11.5346 69.9238 12.0284V17H68.7306V11.7699C68.7306 11.3357 68.5897 10.986 68.308 10.7209C68.0263 10.4524 67.6634 10.3182 67.2192 10.3182C66.9143 10.3182 66.6293 10.3994 66.3641 10.5618C66.1023 10.7242 65.8902 10.9496 65.7277 11.2379C65.5687 11.523 65.4891 11.8527 65.4891 12.2273V17H64.3158ZM76.0638 17V9.36364H77.1973V10.5568H77.2967C77.4558 10.1491 77.7127 9.83262 78.0673 9.60724C78.422 9.37855 78.8479 9.2642 79.345 9.2642C79.8488 9.2642 80.2681 9.37855 80.6028 9.60724C80.9409 9.83262 81.2044 10.1491 81.3933 10.5568H81.4729C81.6684 10.1624 81.9617 9.84919 82.3528 9.61719C82.7439 9.38187 83.2129 9.2642 83.7598 9.2642C84.4426 9.2642 85.001 9.47798 85.4352 9.90554C85.8694 10.3298 86.0865 10.991 86.0865 11.8892V17H84.9132V11.8892C84.9132 11.3258 84.7591 10.9231 84.4509 10.6811C84.1426 10.4392 83.7797 10.3182 83.3621 10.3182C82.8251 10.3182 82.4092 10.4806 82.1142 10.8054C81.8192 11.1269 81.6717 11.5346 81.6717 12.0284V17H80.4786V11.7699C80.4786 11.3357 80.3377 10.986 80.056 10.7209C79.7742 10.4524 79.4113 10.3182 78.9672 10.3182C78.6623 10.3182 78.3772 10.3994 78.1121 10.5618C77.8502 10.7242 77.6381 10.9496 77.4757 11.2379C77.3166 11.523 77.2371 11.8527 77.2371 12.2273V17H76.0638ZM91.0135 17.1591C90.2777 17.1591 89.643 16.9967 89.1093 16.6719C88.579 16.3438 88.1697 15.8864 87.8814 15.2997C87.5963 14.7098 87.4538 14.0237 87.4538 13.2415C87.4538 12.4593 87.5963 11.7699 87.8814 11.1733C88.1697 10.5734 88.5708 10.1061 89.0845 9.77131C89.6015 9.43324 90.2047 9.2642 90.8941 9.2642C91.2919 9.2642 91.6846 9.33049 92.0724 9.46307C92.4602 9.59564 92.8132 9.81108 93.1314 10.1094C93.4495 10.4044 93.7031 10.7955 93.892 11.2827C94.0809 11.7699 94.1754 12.3698 94.1754 13.0824V13.5795H88.289V12.5653H92.9822C92.9822 12.1345 92.896 11.75 92.7237 11.4119C92.5547 11.0739 92.3127 10.8071 91.9978 10.6115C91.6863 10.416 91.3184 10.3182 90.8941 10.3182C90.4268 10.3182 90.0225 10.4342 89.6811 10.6662C89.343 10.8949 89.0828 11.1932 88.9005 11.5611C88.7182 11.929 88.6271 12.3234 88.6271 12.7443V13.4205C88.6271 13.9972 88.7265 14.486 88.9254 14.8871C89.1276 15.2848 89.4076 15.5881 89.7656 15.7969C90.1235 16.0024 90.5395 16.1051 91.0135 16.1051C91.3217 16.1051 91.6001 16.062 91.8487 15.9759C92.1006 15.8864 92.3177 15.7538 92.5 15.5781C92.6823 15.3991 92.8231 15.1771 92.9226 14.9119L94.0561 15.2301C93.9368 15.6146 93.7362 15.9527 93.4545 16.2443C93.1728 16.5327 92.8248 16.758 92.4105 16.9205C91.9962 17.0795 91.5305 17.1591 91.0135 17.1591ZM95.5402 17V9.36364H96.6737V10.517H96.7533C96.8925 10.1392 97.1444 9.83262 97.5089 9.5973C97.8735 9.36198 98.2845 9.24432 98.7419 9.24432C98.8281 9.24432 98.9358 9.24597 99.065 9.24929C99.1943 9.2526 99.2921 9.25758 99.3584 9.2642V10.4574C99.3186 10.4474 99.2275 10.4325 99.0849 10.4126C98.9457 10.3894 98.7982 10.3778 98.6425 10.3778C98.2713 10.3778 97.9398 10.4557 97.6481 10.6115C97.3598 10.764 97.1311 10.9761 96.9621 11.2479C96.7963 11.5163 96.7135 11.8229 96.7135 12.1676V17H95.5402ZM103.199 17.1591C102.483 17.1591 101.867 16.9901 101.35 16.652C100.833 16.3139 100.435 15.8482 100.156 15.255C99.878 14.6617 99.7388 13.9839 99.7388 13.2216C99.7388 12.446 99.8813 11.7616 100.166 11.1683C100.455 10.5717 100.856 10.1061 101.369 9.77131C101.887 9.43324 102.49 9.2642 103.179 9.2642C103.716 9.2642 104.2 9.36364 104.631 9.5625C105.062 9.76136 105.415 10.0398 105.69 10.3977C105.965 10.7557 106.136 11.1733 106.202 11.6506H105.029C104.939 11.3026 104.74 10.9943 104.432 10.7259C104.127 10.4541 103.716 10.3182 103.199 10.3182C102.742 10.3182 102.341 10.4375 101.996 10.6761C101.655 10.9115 101.388 11.2446 101.195 11.6754C101.007 12.103 100.912 12.6051 100.912 13.1818C100.912 13.7718 101.005 14.2855 101.191 14.723C101.379 15.1605 101.645 15.5002 101.986 15.7422C102.331 15.9841 102.735 16.1051 103.199 16.1051C103.504 16.1051 103.781 16.0521 104.029 15.946C104.278 15.84 104.488 15.6875 104.661 15.4886C104.833 15.2898 104.956 15.0511 105.029 14.7727H106.202C106.136 15.2235 105.972 15.6295 105.71 15.9908C105.451 16.3487 105.108 16.6338 104.681 16.8459C104.256 17.0547 103.762 17.1591 103.199 17.1591ZM110.699 17.1591C109.963 17.1591 109.328 16.9967 108.795 16.6719C108.264 16.3438 107.855 15.8864 107.567 15.2997C107.282 14.7098 107.139 14.0237 107.139 13.2415C107.139 12.4593 107.282 11.7699 107.567 11.1733C107.855 10.5734 108.256 10.1061 108.77 9.77131C109.287 9.43324 109.89 9.2642 110.579 9.2642C110.977 9.2642 111.37 9.33049 111.758 9.46307C112.146 9.59564 112.498 9.81108 112.817 10.1094C113.135 10.4044 113.388 10.7955 113.577 11.2827C113.766 11.7699 113.861 12.3698 113.861 13.0824V13.5795H107.974V12.5653H112.668C112.668 12.1345 112.581 11.75 112.409 11.4119C112.24 11.0739 111.998 10.8071 111.683 10.6115C111.372 10.416 111.004 10.3182 110.579 10.3182C110.112 10.3182 109.708 10.4342 109.366 10.6662C109.028 10.8949 108.768 11.1932 108.586 11.5611C108.404 11.929 108.312 12.3234 108.312 12.7443V13.4205C108.312 13.9972 108.412 14.486 108.611 14.8871C108.813 15.2848 109.093 15.5881 109.451 15.7969C109.809 16.0024 110.225 16.1051 110.699 16.1051C111.007 16.1051 111.285 16.062 111.534 15.9759C111.786 15.8864 112.003 15.7538 112.185 15.5781C112.368 15.3991 112.508 15.1771 112.608 14.9119L113.741 15.2301C113.622 15.6146 113.422 15.9527 113.14 16.2443C112.858 16.5327 112.51 16.758 112.096 16.9205C111.681 17.0795 111.216 17.1591 110.699 17.1591ZM118.902 17V6.81818H120.075V10.5767H120.175C120.261 10.4441 120.38 10.2751 120.533 10.0696C120.689 9.8608 120.911 9.67519 121.199 9.51278C121.491 9.34706 121.885 9.2642 122.382 9.2642C123.025 9.2642 123.592 9.42495 124.082 9.74645C124.573 10.0679 124.956 10.5237 125.231 11.1136C125.506 11.7036 125.644 12.3996 125.644 13.2017C125.644 14.0104 125.506 14.7114 125.231 15.3047C124.956 15.8946 124.575 16.352 124.087 16.6768C123.6 16.9983 123.038 17.1591 122.402 17.1591C121.912 17.1591 121.519 17.0779 121.224 16.9155C120.929 16.7498 120.702 16.5625 120.543 16.3537C120.384 16.1416 120.261 15.9659 120.175 15.8267H120.036V17H118.902ZM120.056 13.1818C120.056 13.7585 120.14 14.2673 120.309 14.7081C120.478 15.1456 120.725 15.4886 121.05 15.7372C121.375 15.9825 121.772 16.1051 122.243 16.1051C122.734 16.1051 123.143 15.9759 123.471 15.7173C123.802 15.4555 124.051 15.1042 124.217 14.6634C124.386 14.2192 124.47 13.7254 124.47 13.1818C124.47 12.6449 124.387 12.161 124.222 11.7301C124.059 11.2959 123.812 10.9529 123.481 10.701C123.153 10.4458 122.74 10.3182 122.243 10.3182C121.766 10.3182 121.365 10.4392 121.04 10.6811C120.715 10.9197 120.47 11.2545 120.304 11.6854C120.138 12.1129 120.056 12.6117 120.056 13.1818ZM127.501 19.8636C127.302 19.8636 127.124 19.8471 126.969 19.8139C126.813 19.7841 126.705 19.7543 126.645 19.7244L126.944 18.6903C127.229 18.7633 127.481 18.7898 127.699 18.7699C127.918 18.75 128.112 18.6522 128.281 18.4766C128.453 18.3042 128.611 18.0241 128.753 17.6364L128.972 17.0398L126.148 9.36364H127.421L129.529 15.4489H129.609L131.716 9.36364H132.989L129.748 18.1136C129.602 18.508 129.421 18.8345 129.206 19.093C128.99 19.3549 128.74 19.5488 128.455 19.6747C128.173 19.8007 127.855 19.8636 127.501 19.8636Z" fill="#02934F"/>
</svg>
