<svg width="24" height="24" viewBox="0 0 24 24" fill="none" xmlns="http://www.w3.org/2000/svg">
<mask id="mask0_843_18704" style="mask-type:alpha" maskUnits="userSpaceOnUse" x="0" y="0" width="24" height="24">
<rect width="24" height="24" fill="#D9D9D9"/>
</mask>
<g mask="url(#mask0_843_18704)">
<path d="M14.8496 20.1656V18.0406L20.1496 12.7406L22.2746 14.8656L16.9746 20.1656H14.8496ZM22.9746 14.1656L20.8496 12.0406L21.5746 11.3156C21.7746 11.1156 22.0123 11.0156 22.2876 11.0156C22.5623 11.0156 22.7913 11.1156 22.9746 11.3156L23.6996 12.0406C23.8996 12.224 23.9996 12.453 23.9996 12.7276C23.9996 13.003 23.8996 13.2406 23.6996 13.4406L22.9746 14.1656Z" fill="#1C1B1F"/>
<path d="M12 11L20 6H4L12 11ZM12 13L4 8V18H12.6426V20H4C3.45 20 2.97933 19.8043 2.588 19.413C2.196 19.021 2 18.55 2 18V6C2 5.45 2.196 4.97933 2.588 4.588C2.97933 4.196 3.45 4 4 4H20C20.55 4 21.021 4.196 21.413 4.588C21.8043 4.97933 22 5.45 22 6V8.35L20 10.1537V8L12 13Z" fill="#1C1B1F"/>
</g>
</svg>
