<svg width="1240" height="178" viewBox="0 0 1240 178" fill="none" xmlns="http://www.w3.org/2000/svg">
<path d="M562.504 62.5342L562.504 78.6391M562.504 623.112L562.504 342.802M562.504 277.06L562.504 128.842" stroke="#014729" stroke-dasharray="4 4"/>
<path d="M460.313 60.5625L460.312 402.423M460.312 622.938L460.312 427.095" stroke="#014729" stroke-dasharray="4 4"/>
<path d="M664.505 84.8047L664.504 402.422L664.504 427.094L664.504 622.938" stroke="#014729" stroke-dasharray="4 4"/>
<path d="M766.504 60.5625L766.504 181.458M766.505 622.938L766.505 427.094L766.505 402.422L766.504 230.528" stroke="#014729" stroke-dasharray="4 4"/>
<path d="M868.505 32.5156L868.504 402.423L868.504 427.095L868.504 622.939" stroke="#014729" stroke-dasharray="4 4"/>
<path d="M970.504 0.376953L970.504 168.094M970.505 622.938L970.505 427.095L970.505 402.422L970.504 247.527" stroke="#014729" stroke-dasharray="4 4"/>
<path d="M1072.5 25.1348L1072.5 90.6715M1072.5 622.938L1072.5 427.095L1072.5 402.422L1072.5 115.708" stroke="#014729" stroke-dasharray="4 4"/>
<path d="M1174.5 63.5137L1174.5 288.283M1174.5 622.939L1174.5 427.096L1174.5 402.423L1174.5 336.447" stroke="#014729" stroke-dasharray="4 4"/>
<path d="M358.621 31.0391L358.621 164.981M358.621 622.935L358.621 541.689M358.621 247.696L358.621 492.09" stroke="#014729" stroke-dasharray="4 4"/>
<path d="M255.93 0.376953L255.93 91.1203M255.93 622.931L255.93 115.423" stroke="#014729" stroke-dasharray="4 4"/>
<path d="M153.738 28.9004L153.739 373.882M153.739 622.94L153.739 456.956" stroke="#014729" stroke-dasharray="4 4"/>
<path d="M51.5469 65.4354L51.5471 183.825M51.5471 622.928L51.5471 319.91M51.5471 229.844L51.5471 302.676" stroke="#014729" stroke-dasharray="4 4"/>
<path d="M-30.707 103.438L242.557 103.437M1255.39 103.437L1084.42 103.437M585.878 103.437L1060.01 103.437M537.539 103.437L268.521 103.437" stroke="#014729" stroke-dasharray="4 4"/>
<path d="M562.48 127.355L572.663 113.538L586.48 103.355L572.663 93.1731L562.48 79.3555L552.298 93.1731L538.48 103.355L552.298 113.538L562.48 127.355Z" stroke="#014729" stroke-dasharray="4 4"/>
<path d="M358.621 247.236L375.592 224.207L398.621 207.236L375.592 190.266L358.621 167.236L341.651 190.266L318.621 207.236L341.651 224.207L358.621 247.236Z" stroke="#014729" stroke-dasharray="4 4"/>
<path d="M970.504 247.236L987.474 224.207L1010.5 207.236L987.474 190.266L970.504 167.236L953.533 190.266L930.504 207.236L953.533 224.207L970.504 247.236Z" stroke="#014729" stroke-dasharray="4 4"/>
<circle cx="12" cy="12" r="12" transform="matrix(1 0 0 -1 1060.5 115.438)" stroke="#014729" stroke-dasharray="4 4"/>
<circle cx="12" cy="12" r="12" transform="matrix(1 0 0 -1 243.598 115.438)" stroke="#014729" stroke-dasharray="4 4"/>
</svg>
